<svg width="53" height="29" viewBox="0 0 53 29" fill="none" xmlns="http://www.w3.org/2000/svg">
<path d="M17.4 29V28.2C18.3067 28.1467 18.9867 28.04 19.44 27.88C19.92 27.72 20.24 27.4 20.4 26.92C20.56 26.44 20.64 25.72 20.64 24.76V4.92C20.64 3.93333 20.56 3.21333 20.4 2.76C20.24 2.28 19.92 1.96 19.44 1.8C18.9867 1.61333 18.3067 1.50667 17.4 1.48V0.68C18.0133 0.706666 18.7867 0.733332 19.72 0.759999C20.6533 0.786665 21.5733 0.799998 22.48 0.799998C23.52 0.799998 24.4933 0.786665 25.4 0.759999C26.3067 0.733332 27.04 0.706666 27.6 0.68V1.48C26.6933 1.50667 26 1.61333 25.52 1.8C25.0667 1.96 24.76 2.28 24.6 2.76C24.44 3.21333 24.36 3.93333 24.36 4.92V24.76C24.36 25.72 24.44 26.44 24.6 26.92C24.76 27.4 25.0667 27.72 25.52 27.88C26 28.04 26.6933 28.1467 27.6 28.2V29C27.04 28.9467 26.3067 28.92 25.4 28.92C24.4933 28.8933 23.52 28.88 22.48 28.88C21.5733 28.88 20.6533 28.8933 19.72 28.92C18.7867 28.92 18.0133 28.9467 17.4 29ZM0.68 29V28.2C1.58667 28.1467 2.26667 28.04 2.72 27.88C3.2 27.72 3.52 27.4 3.68 26.92C3.84 26.44 3.92 25.72 3.92 24.76V4.92C3.92 3.93333 3.84 3.21333 3.68 2.76C3.52 2.28 3.2 1.96 2.72 1.8C2.26667 1.61333 1.58667 1.50667 0.68 1.48V0.68C1.24 0.706666 1.97333 0.733332 2.88 0.759999C3.78667 0.786665 4.76 0.799998 5.8 0.799998C6.73333 0.799998 7.65333 0.786665 8.56 0.759999C9.49333 0.733332 10.2667 0.706666 10.88 0.68V1.48C9.97333 1.50667 9.28 1.61333 8.8 1.8C8.34667 1.96 8.04 2.28 7.88 2.76C7.72 3.21333 7.64 3.93333 7.64 4.92V24.76C7.64 25.72 7.72 26.44 7.88 26.92C8.04 27.4 8.34667 27.72 8.8 27.88C9.28 28.04 9.97333 28.1467 10.88 28.2V29C10.2667 28.9467 9.49333 28.92 8.56 28.92C7.65333 28.8933 6.73333 28.88 5.8 28.88C4.76 28.88 3.78667 28.8933 2.88 28.92C1.97333 28.92 1.24 28.9467 0.68 29ZM6.24 15.16V14.36H22.04V15.16H6.24ZM30.9534 0.68C31.5134 0.706666 32.2468 0.733332 33.1534 0.759999C34.0601 0.786665 34.9534 0.799998 35.8334 0.799998C37.0868 0.799998 38.2868 0.786665 39.4334 0.759999C40.5801 0.733332 41.3934 0.719999 41.8734 0.719999C44.6734 0.719999 46.7801 1.30667 48.1934 2.48C49.6068 3.65333 50.3134 5.16 50.3134 7C50.3134 7.93333 50.1134 8.85333 49.7134 9.76C49.3401 10.64 48.7001 11.4533 47.7934 12.2C46.9134 12.92 45.7268 13.5067 44.2334 13.96V14.04C46.3401 14.3067 47.9801 14.8133 49.1534 15.56C50.3534 16.28 51.1934 17.1333 51.6734 18.12C52.1534 19.1067 52.3934 20.1467 52.3934 21.24C52.3934 22.76 52.0068 24.1067 51.2334 25.28C50.4868 26.4267 49.3934 27.3333 47.9534 28C46.5134 28.6667 44.7934 29 42.7934 29C42.2068 29 41.3268 28.9867 40.1534 28.96C38.9801 28.9067 37.5668 28.88 35.9134 28.88C34.9801 28.88 34.0601 28.8933 33.1534 28.92C32.2468 28.92 31.5134 28.9467 30.9534 29V28.2C31.8601 28.1467 32.5401 28.04 32.9934 27.88C33.4734 27.72 33.7934 27.4 33.9534 26.92C34.1134 26.44 34.1934 25.72 34.1934 24.76V4.92C34.1934 3.93333 34.1134 3.21333 33.9534 2.76C33.7934 2.28 33.4734 1.96 32.9934 1.8C32.5401 1.61333 31.8601 1.50667 30.9534 1.48V0.68ZM40.8734 1.48C39.6468 1.48 38.8468 1.70667 38.4734 2.16C38.1001 2.61333 37.9134 3.53333 37.9134 4.92V24.76C37.9134 25.6933 37.9934 26.4 38.1534 26.88C38.3134 27.36 38.6068 27.68 39.0334 27.84C39.4601 28 40.0868 28.08 40.9134 28.08C43.5268 28.08 45.4201 27.48 46.5934 26.28C47.7934 25.0533 48.3934 23.32 48.3934 21.08C48.3934 19.0267 47.8334 17.44 46.7134 16.32C45.6201 15.2 43.8068 14.64 41.2734 14.64H37.1534C37.1534 14.64 37.1534 14.5333 37.1534 14.32C37.1534 14.08 37.1534 13.96 37.1534 13.96H40.5934C42.1668 13.96 43.3801 13.6667 44.2334 13.08C45.0868 12.4667 45.6734 11.6667 45.9934 10.68C46.3134 9.66667 46.4734 8.58667 46.4734 7.44C46.4734 5.46667 46.0334 3.98667 45.1534 3C44.3001 1.98667 42.8734 1.48 40.8734 1.48Z" fill="#F5E4EA"/>
</svg>
